IKResults
version=1
nRows=6
nColumns=63
inDegrees=yes

Units are S.I. units (second, meters, Newtons, ...)
If the header above contains a line with 'inDegrees', this indicates whether rotational values are in degrees (yes) or radians (no).

endheader
time	pelvis_tilt	pelvis_list	pelvis_rotation	pelvis_tx	pelvis_ty	pelvis_tz	hip_flexion_r	hip_adduction_r	hip_rotation_r	knee_angle_r	knee_angle_r_beta	ankle_angle_r	subtalar_angle_r	mtp_angle_r	hip_flexion_l	hip_adduction_l	hip_rotation_l	knee_angle_l	knee_angle_l_beta	ankle_angle_l	subtalar_angle_l	mtp_angle_l	L5_S1_Flex_Ext	L5_S1_Lat_Bending	L5_S1_axial_rotation	L4_L5_Flex_Ext	L4_L5_Lat_Bending	L4_L5_axial_rotation	L3_L4_Flex_Ext	L3_L4_Lat_Bending	L3_L4_axial_rotation	L2_L3_Flex_Ext	L2_L3_Lat_Bending	L2_L3_axial_rotation	L1_L2_Flex_Ext	L1_L2_Lat_Bending	L1_L2_axial_rotation	L1_T12_Flex_Ext	L1_T12_Lat_Bending	L1_T12_axial_rotation	Abs_r3	Abs_r2	Abs_r1	Abs_t1	Abs_t2	neck_flexion	neck_bending	neck_rotation	arm_flex_r	arm_add_r	arm_rot_r	elbow_flex_r	pro_sup_r	wrist_flex_r	wrist_dev_r	arm_flex_l	arm_add_l	arm_rot_l	elbow_flex_l	pro_sup_l	wrist_flex_l	wrist_dev_l
      0.03333333	    -15.86975782	      1.82153774	      0.29369811	      0.20612799	      0.97382177	     -0.38645105	      9.05622473	     -7.31293893	     -4.19708823	      0.62982754	      0.01099256	     17.14760097	      9.68376383	      0.00000000	      9.65654836	     -4.52845508	    -13.86950759	      3.83405712	      0.06691692	      0.00000000	      0.00000000	      0.00000000	      3.25431610	     -0.24979655	      0.41827307	      6.04359042	     -0.33222941	      0.44441514	      5.34651591	     -0.60735533	      0.44441514	      3.71935787	     -0.60735533	      0.36598894	      3.02195793	     -0.50938513	      0.33984687	      1.85951622	     -0.38693486	      0.31370480	     23.24525444	     -2.82574854	      2.32630935	      0.00000000	      0.00000000	     18.67481112	     -1.00923587	     -8.58513526	    -17.31939510	    -11.47892477	     15.72148594	     28.70031807	     89.99559364	      0.00000000	      0.00000000	    -16.66893406	    -15.54608720	     22.09625570	     34.46105785	     89.99559364	      0.00000000	      0.00000000
      0.06666667	    -15.86638319	      1.82402785	      0.29332782	      0.20604979	      0.97383997	     -0.38645127	      9.07036643	     -7.31708677	     -4.19697324	      0.64685987	      0.01128983	     17.14979834	      9.67845338	      0.00000000	      9.64866344	     -4.53158095	    -13.87042368	      3.84010692	      0.06702251	      0.00000000	      0.00000000	      0.00000000	      3.25431726	     -0.24964415	      0.41760953	      6.04359257	     -0.33202672	      0.44371012	      5.34651782	     -0.60698478	      0.44371012	      3.71935919	     -0.60698478	      0.36540834	      3.02195900	     -0.50907435	      0.33930774	      1.85951688	     -0.38669879	      0.31320715	     23.24526272	     -2.82402453	      2.32261891	      0.00000000	      0.00000000	     18.66931766	     -1.01002094	     -8.58399596	    -17.31892868	    -11.47897078	     15.72176429	     28.70164358	     89.99559364	      0.00000000	      0.00000000	    -16.66347396	    -15.54737584	     22.09454760	     34.46284104	     89.99559364	      0.00000000	      0.00000000
      0.10000000	    -15.86703196	      1.83271561	      0.28061400	      0.20588800	      0.97386062	     -0.38640876	      9.06766523	     -7.31870711	     -4.19064501	      0.60034613	      0.01047802	     17.13171772	      9.66686023	      0.00000000	      9.66021486	     -4.52624066	    -13.88193586	      3.83838119	      0.06699239	      0.00000000	      0.00000000	      0.00000000	      3.25508788	     -0.24939971	      0.41566061	      6.04502371	     -0.33170162	      0.44163939	      5.34778388	     -0.60639046	      0.44163939	      3.72023994	     -0.60639046	      0.36370303	      3.02267461	     -0.50857589	      0.33772424	      1.85995722	     -0.38632015	      0.31174545	     23.25076723	     -2.82125942	      2.31177959	      0.00000000	      0.00000000	     18.64635744	     -1.01573607	     -8.57610094	    -17.29252058	    -11.48300103	     15.72068078	     28.70944059	     89.99559364	      0.00000000	      0.00000000	    -16.64779958	    -15.55062451	     22.08871449	     34.46116940	     89.99559364	      0.00000000	      0.00000000
      0.13333333	    -15.85104695	      1.83337475	      0.28531237	      0.20578422	      0.97391005	     -0.38640924	      9.07632566	     -7.32275720	     -4.18971455	      0.63589107	      0.01109839	     17.12740680	      9.66365643	      0.00000000	      9.65369100	     -4.52781671	    -13.88157917	      3.84541073	      0.06711508	      0.00000000	      0.00000000	      0.00000000	      3.25560960	     -0.24909961	      0.41522141	      6.04599259	     -0.33130248	      0.44117275	      5.34864101	     -0.60566079	      0.44117275	      3.72083621	     -0.60566079	      0.36331874	      3.02315907	     -0.50796392	      0.33736740	      1.86025532	     -0.38585529	      0.31141606	     23.25449380	     -2.81786458	      2.30933694	      0.00000000	      0.00000000	     18.64086739	     -1.01591063	     -8.57525353	    -17.29530311	    -11.48156495	     15.72144618	     28.71020643	     89.99559364	      0.00000000	      0.00000000	    -16.64801258	    -15.55182213	     22.08840818	     34.46153836	     89.99559364	      0.00000000	      0.00000000
      0.16666667	    -15.83572927	      1.84128162	      0.28202832	      0.20558907	      0.97398030	     -0.38638131	      9.08781633	     -7.33142842	     -4.18519643	      0.64785750	      0.01130725	     17.09590269	      9.66183697	      0.00000000	      9.63808760	     -4.52528152	    -13.88455125	      3.85202018	      0.06723044	      0.00000000	      0.00000000	      0.00000000	      3.25630311	     -0.24819037	      0.41167289	      6.04728051	     -0.33009319	      0.43740245	      5.34978039	     -0.60345006	      0.43740245	      3.72162883	     -0.60345006	      0.36021378	      3.02380307	     -0.50610980	      0.33448422	      1.86065160	     -0.38444688	      0.30875467	     23.25944751	     -2.80757910	      2.28960111	      0.00000000	      0.00000000	     18.62087446	     -1.01798787	     -8.57099292	    -17.29464388	    -11.48237313	     15.72210857	     28.71158502	     89.99559364	      0.00000000	      0.00000000	    -16.63764339	    -15.55623240	     22.08632667	     34.46063908	     89.99559364	      0.00000000	      0.00000000
      0.20000000	    -15.79468740	      1.85149636	      0.29308426	      0.20540652	      0.97418449	     -0.38642062	      9.03278060	     -7.34878053	     -4.13699702	      0.56626400	      0.00988317	     16.72211086	      9.67184894	      0.00000000	      9.59911452	     -4.51064974	    -13.92971826	      3.83836480	      0.06699210	      0.00000000	      0.00000000	      0.00000000	      3.25663282	     -0.24586291	      0.39397065	      6.04789281	     -0.32699767	      0.41859382	      5.35032206	     -0.59779109	      0.41859382	      3.72200565	     -0.59779109	      0.34472432	      3.02410924	     -0.50136365	      0.32010115	      1.86083999	     -0.38084165	      0.29547799	     23.26180258	     -2.78125045	      2.19114657	      0.00000000	      0.00000000	     18.41096493	     -1.05337165	     -8.48774007	    -17.24443544	    -11.50056563	     15.73114162	     28.69928654	     89.99559364	      0.00000000	      0.00000000	    -16.65872567	    -15.53023702	     22.09906476	     34.40869805	     89.99559364	      0.00000000	      0.00000000
